<svg xmlns="http://www.w3.org/2000/svg" viewBox="0 0 24 24" aria-hidden="true">
  <title>Cloudflare</title>
  <path fill="#F38020" d="M16.5088 16.8447l.211-.7341c.2509-.8612.1554-1.6585-.2691-2.2439-.3905-.5388-1.0395-.8589-1.8294-.8957l-14.7474-.183a.2872.2872 0 0 1-.235-.1262.2964.2964 0 0 1-.036-.2718.4245.4245 0 0 1 .3705-.2823l14.8841-.1898c1.7666-.0796 3.6797-1.508 4.3508-3.2553l.8517-2.2179a.5223.5223 0 0 0 .0314-.2917C19.4329 2.6189 16.8154 0 13.5871 0c-2.9745 0-5.5004 2.2225-5.8782 5.1239-2.434-1.815-5.8895-.5852-6.66 2.3592A4.516 4.516 0 0 0 .8666 9.18c-.4994.0228-.9417.397-.9417.952 0 .5577.4533.9988 1.014.9988h15.4233a.6231.6231 0 0 0 .5934-.4451l.6553-1.2415zm2.0747-2.4307c-.1318 0-.2638.012-.3953.0345l-.4063 1.4115a.5224.5224 0 0 1-.0227.0596l-1.6936 3.8945a.2982.2982 0 0 0 .2698.4196h4.6936c2.1234 0 3.8472-1.7237 3.8472-3.8472S22.6595 14.414 18.5836 14.414z"/>
</svg>
